<svg xmlns="http://www.w3.org/2000/svg" xmlns:xlink="http://www.w3.org/1999/xlink" id="Layer_1" x="0px" y="0px" viewBox="0 0 100 100" xml:space="preserve">
<g>
	<g>
		<g>
			<linearGradient id="SVGID_1_" gradientUnits="userSpaceOnUse" x1="1.0207" y1="50" x2="98.9744" y2="50">
				<stop offset="0.5418" style="stop-color:#000000"></stop>
				<stop offset="1" style="stop-color:#37ECF8"></stop>
			</linearGradient>
			<path fill="url(#SVGID_1_)" d="M50,99v-10c21.5,0,38.9-17.5,38.9-38.9S71.5,11.1,50,11.1c-21.5,0-38.9,17.5-38.9,38.9H1     C1,23,23,1,50,1c27,0,49,22,49,49C99,77,77,99,50,99z"></path>
		</g>
	</g>
	<g>
		<g>
			<path d="M50,99C23,99,1,77,1,50C1,23,23,1,50,1v10c-21.5,0-38.9,17.5-38.9,38.9S28.5,88.9,50,88.9c21.5,0,38.9-17.5,38.9-38.9h10     C99,77,77,99,50,99z"></path>
		</g>
	</g>
	<g>
		<g>
			<g>
				<path d="M74.1,34.9l-4.2-2.4c-12.3-7.1-27.5-7.1-39.8,0l-4.2,2.4v25.3c2.7,4.6,5.9,8.9,9.7,12.6c0.2-1.1,0.6-2.2,1-3.3      c1.3-3,3.6-5.5,5.5-8.1c4.1-5.4,7.2-12.3,6.2-19.1c0,0,5.3,5.5,5.9,12.2c0.2,2.1,0.2,4.2,0.2,6.3c0,1.1,0.1,2.2,0.6,3.3      c0.4,0.7,0.9,1.1,1.7,1.1c0.8,0,1.3-0.5,1.7-1.3c0.5-1.1,0.3-2.3,0.1-3.4c-0.2-0.8-0.4-1.6-0.7-2.5c0.5,0.4,0.9,0.6,1.2,1      c3.5,3.3,5.5,8.4,5.7,13.5c3.6-3.7,6.8-7.8,9.4-12.3V34.9z"></path>
			</g>
		</g>
	</g>
</g>
</svg>